<?xml version="1.0" encoding="UTF-8" standalone="no"?>
<!-- Created with Inkscape (http://www.inkscape.org/) -->

<svg
   version="1.1"
   id="svg59"
   width="680"
   height="680"
   viewBox="0 0 680 680"
   sodipodi:docname="logo.svg"
   inkscape:version="1.2.2 (732a01da63, 2022-12-09)"
   xmlns:inkscape="http://www.inkscape.org/namespaces/inkscape"
   xmlns:sodipodi="http://sodipodi.sourceforge.net/DTD/sodipodi-0.dtd"
   xmlns:xlink="http://www.w3.org/1999/xlink"
   xmlns="http://www.w3.org/2000/svg"
   xmlns:svg="http://www.w3.org/2000/svg">
  <defs
     id="defs63">
    <linearGradient
       inkscape:collect="always"
       id="linearGradient3897">
      <stop
         style="stop-color:#37415e;stop-opacity:1;"
         offset="0"
         id="stop3893" />
      <stop
         style="stop-color:#1d4eff;stop-opacity:1;"
         offset="1"
         id="stop3895" />
    </linearGradient>
    <inkscape:path-effect
       effect="powerstroke"
       id="path-effect1832"
       is_visible="true"
       lpeversion="1"
       offset_points="22.22036,-13.553715"
       not_jump="false"
       sort_points="true"
       interpolator_type="CentripetalCatmullRom"
       interpolator_beta="0.2"
       start_linecap_type="zerowidth"
       linejoin_type="round"
       miter_limit="4"
       scale_width="1"
       end_linecap_type="zerowidth" />
    <inkscape:path-effect
       effect="powerstroke"
       id="path-effect1826"
       is_visible="true"
       lpeversion="1"
       offset_points="22,0.66666502"
       not_jump="false"
       sort_points="true"
       interpolator_type="CentripetalCatmullRom"
       interpolator_beta="0.2"
       start_linecap_type="zerowidth"
       linejoin_type="round"
       miter_limit="-0.2"
       scale_width="1"
       end_linecap_type="zerowidth" />
    <inkscape:path-effect
       effect="powerstroke"
       id="path-effect1818"
       is_visible="true"
       lpeversion="1"
       offset_points="22.922036,-12.569783"
       not_jump="false"
       sort_points="true"
       interpolator_type="CentripetalCatmullRom"
       interpolator_beta="0.2"
       start_linecap_type="zerowidth"
       linejoin_type="round"
       miter_limit="4"
       scale_width="1"
       end_linecap_type="zerowidth" />
    <inkscape:path-effect
       effect="powerstroke"
       id="path-effect1814"
       is_visible="true"
       lpeversion="1"
       offset_points="20.681548,-1.6523949"
       not_jump="false"
       sort_points="true"
       interpolator_type="CentripetalCatmullRom"
       interpolator_beta="0.2"
       start_linecap_type="zerowidth"
       linejoin_type="round"
       miter_limit="4"
       scale_width="1"
       end_linecap_type="zerowidth" />
    <inkscape:path-effect
       effect="powerstroke"
       id="path-effect1810"
       is_visible="true"
       lpeversion="1"
       offset_points="13.847774,0.66666502"
       not_jump="false"
       sort_points="true"
       interpolator_type="CentripetalCatmullRom"
       interpolator_beta="0.2"
       start_linecap_type="zerowidth"
       linejoin_type="round"
       miter_limit="4"
       scale_width="1"
       end_linecap_type="zerowidth" />
    <inkscape:path-effect
       effect="powerstroke"
       id="path-effect1777"
       is_visible="true"
       lpeversion="1"
       offset_points="8.5,0.66666502"
       not_jump="false"
       sort_points="true"
       interpolator_type="CentripetalCatmullRom"
       interpolator_beta="0.2"
       start_linecap_type="zerowidth"
       linejoin_type="round"
       miter_limit="4"
       scale_width="1"
       end_linecap_type="zerowidth" />
    <inkscape:path-effect
       effect="powerstroke"
       id="path-effect1771"
       is_visible="true"
       lpeversion="1"
       offset_points="6.6752949,-1.6523949"
       not_jump="false"
       sort_points="true"
       interpolator_type="CentripetalCatmullRom"
       interpolator_beta="0.2"
       start_linecap_type="zerowidth"
       linejoin_type="round"
       miter_limit="4"
       scale_width="1"
       end_linecap_type="zerowidth" />
    <inkscape:path-effect
       effect="powerstroke"
       id="path-effect1765"
       is_visible="true"
       lpeversion="1"
       offset_points="8.6922194,-9.1942239"
       not_jump="false"
       sort_points="true"
       interpolator_type="CentripetalCatmullRom"
       interpolator_beta="0.2"
       start_linecap_type="zerowidth"
       linejoin_type="round"
       miter_limit="4"
       scale_width="1"
       end_linecap_type="zerowidth" />
    <inkscape:path-effect
       effect="fill_between_many"
       method="bsplinespiro"
       linkedpaths="#path179,0,1"
       id="path-effect1767" />
    <inkscape:path-effect
       effect="fill_between_many"
       method="bsplinespiro"
       linkedpaths="#path181,0,1"
       id="path-effect1773" />
    <inkscape:path-effect
       effect="fill_between_many"
       method="bsplinespiro"
       linkedpaths="#path183,0,1"
       id="path-effect1779" />
    <inkscape:path-effect
       effect="fill_between_many"
       method="bsplinespiro"
       linkedpaths="#path1798,0,1"
       id="path-effect1828"
       join="true"
       close="true"
       autoreverse="true" />
    <radialGradient
       inkscape:collect="always"
       xlink:href="#linearGradient3897"
       id="radialGradient3899"
       cx="582.04907"
       cy="544.02417"
       fx="582.04907"
       fy="544.02417"
       r="316.69991"
       gradientTransform="matrix(1.4864547,-1.674574,1.7796206,1.5797007,-1495.1397,733.68299)"
       gradientUnits="userSpaceOnUse" />
  </defs>
  <sodipodi:namedview
     id="namedview61"
     pagecolor="#ffffff"
     bordercolor="#000000"
     borderopacity="0.25"
     inkscape:showpageshadow="2"
     inkscape:pageopacity="0.0"
     inkscape:pagecheckerboard="0"
     inkscape:deskcolor="#d1d1d1"
     showgrid="false"
     inkscape:zoom="0.80589376"
     inkscape:cx="140.83742"
     inkscape:cy="351.16291"
     inkscape:window-width="1450"
     inkscape:window-height="1020"
     inkscape:window-x="128"
     inkscape:window-y="0"
     inkscape:window-maximized="0"
     inkscape:current-layer="svg59" />
  <g
     id="g1858"
     transform="translate(-10.090323,-0.87741936)">
    <path
       style="display:inline;fill:url(#radialGradient3899);fill-opacity:1;fill-rule:nonzero;stroke:none;stroke-width:1.33333;stroke-opacity:1"
       d="m 437.09133,637.2382 c -1.55262,-0.74836 -2.85701,-1.6553 -3.85662,-2.44021 -0.97152,-0.76285 -1.89892,-1.60365 -2.75915,-2.4725 -0.81109,-0.81923 -1.62714,-1.72892 -2.40512,-2.70361 -0.72845,-0.91262 -1.49615,-1.97328 -2.20509,-3.14256 -0.24979,-0.41199 -0.4492,-0.78408 -0.56546,-1.00473 -0.13342,-0.25324 -0.26333,-0.51004 -0.38309,-0.75133 -0.23753,-0.47859 -0.50579,-1.03887 -0.79377,-1.65159 -0.56975,-1.21222 -1.30048,-2.80838 -2.17308,-4.7427 -1.69597,-3.75953 -3.99437,-8.94435 -6.7898,-15.31906 -5.29539,-12.07559 -12.42842,-28.54424 -20.30129,-46.94645 -7.43029,-17.36769 -13.26534,-30.86581 -17.33874,-40.63407 -2.03138,-4.87139 -3.73411,-9.07348 -5.12104,-12.72075 -1.36513,-3.58994 -2.48131,-6.79017 -3.33211,-9.70658 -0.84525,-2.89739 -1.46931,-5.64994 -1.81492,-8.38916 -0.34871,-2.76386 -0.38918,-5.31523 -0.19988,-7.84475 0.18061,-2.41337 0.56183,-4.66755 0.95402,-6.73706 0.39553,-2.08706 0.82729,-4.12911 1.26984,-6.50896 0.32744,-1.76084 0.61825,-4.25016 0.80703,-7.36615 0.18221,-3.0075 0.2576,-6.39992 0.2127,-9.94178 -0.044,-3.46844 -0.20258,-7.01056 -0.47475,-10.36267 -0.26875,-3.31005 -0.63873,-6.31419 -1.08324,-8.78495 -2.84273,-15.80091 -9.31659,-32.57688 -19.78032,-48.96296 -1.61394,-2.52741 -3.04743,-4.85966 -4.21725,-6.98955 -1.1419,-2.07905 -2.23856,-4.33151 -3.01853,-6.71458 -0.81049,-2.47635 -1.31169,-5.18548 -1.19207,-8.14243 0.11699,-2.89186 0.80185,-5.34876 1.5451,-7.33678 0.53845,-1.44023 1.20701,-2.96523 1.90447,-4.45035 0.70659,-1.50456 1.50863,-3.10725 2.36009,-4.7387 1.68823,-3.23478 3.65497,-6.74351 5.61624,-10.05197 1.93058,-3.25668 3.93913,-6.45981 5.72748,-9.06336 0.87864,-1.27916 1.80571,-2.5624 2.71402,-3.68635 0.45176,-0.55901 0.99354,-1.19654 1.59852,-1.82416 0.30677,-0.31824 0.68289,-0.6893 1.11882,-1.0748 0.4183,-0.36991 1.0194,-0.86694 1.7777,-1.36976 1.50963,-1.00102 2.99867,-1.63343 4.22065,-2.05306 1.22873,-0.42195 2.4437,-0.71515 3.5589,-0.9335 2.17484,-0.42581 4.70405,-0.70562 7.53389,-0.92146 2.87013,-0.21892 6.38306,-0.3953 10.6756,-0.54977 4.27747,-0.15392 9.41825,-0.28912 15.60884,-0.42038 9.15368,-0.19407 18.41583,-0.39044 27.76972,-0.58876 1.13611,-0.69777 2.27778,-1.39895 3.42436,-2.10315 0.17761,-0.10908 0.58,-0.38451 1.19741,-0.90292 0.59914,-0.50307 1.2951,-1.1459 2.0617,-1.92204 1.53963,-1.55881 3.15917,-3.44743 4.62371,-5.39566 1.47893,-1.96737 2.61675,-3.75243 3.31297,-5.0764 0.32507,-0.61817 0.50179,-1.06967 0.50335,-1.07418 7.8e-4,-0.002 -0.0432,0.11028 -0.10859,0.42485 -0.0576,0.27679 -0.16159,0.87041 -0.16159,1.69809 0,1.13214 0.16067,2.19307 0.42536,3.14983 0.26002,0.93989 0.60016,1.70743 0.91374,2.29132 0.59146,1.1013 1.17491,1.70772 1.25928,1.79523 0.14674,0.1522 -0.003,-0.0116 -0.41121,-0.33626 -0.42371,-0.33732 -1.054,-0.80693 -1.96619,-1.43967 -1.8369,-1.27415 -4.47145,-2.97196 -8.22829,-5.28536 -3.72432,-2.29338 -8.413,-5.10707 -14.31362,-8.60597 -11.25587,-6.67442 -19.29411,-11.63047 -25.37761,-15.80327 -3.06711,-2.1038 -5.71582,-4.0613 -8.09569,-6.00115 -2.39449,-1.95176 -4.47001,-3.84741 -6.41319,-5.8195 -3.89591,-3.95386 -9.56023,-8.02133 -16.45593,-11.58506 -6.8407,-3.53532 -14.49318,-6.36695 -22.09392,-8.07861 -6.49297,-1.4622 -12.23426,-2.77427 -16.79502,-4.27457 -2.35772,-0.77559 -4.76314,-1.7142 -7.0443,-2.94437 -2.32679,-1.25477 -4.64558,-2.87694 -6.71048,-5.06046 -2.10139,-2.22212 -3.64082,-4.71015 -4.7307,-7.35885 -1.05504,-2.56405 -1.62769,-5.12892 -1.97035,-7.4917 -0.34106,-2.35177 -0.49255,-4.78823 -0.56954,-7.18006 -0.0773,-2.40107 -0.0865,-5.04345 -0.0869,-7.81187 -2.3e-4,-1.71734 -0.0323,-3.33714 -0.0882,-4.78617 -0.0564,-1.4608 -0.13481,-2.69343 -0.22103,-3.64487 -0.043,-0.47452 -0.0843,-0.83841 -0.11906,-1.09845 -0.0335,-0.25029 -0.0626,-0.37887 -0.0322,-0.23615 0.0121,0.0566 0.0499,0.22884 0.12306,0.48164 0.0647,0.22358 0.21548,0.71573 0.4919,1.34503 0.14291,0.32534 0.35832,0.77673 0.66422,1.29709 0.2965,0.50438 0.76978,1.23098 1.46704,2.01988 0.68341,0.77322 1.7975,1.85128 3.4243,2.77069 1.70791,0.96525 3.96175,1.73621 6.60536,1.73621 2.32357,-2e-5 4.03103,-0.65801 4.87683,-1.05412 0.88445,-0.41421 1.42598,-0.82413 1.59907,-0.96005 0.31998,-0.25125 0.19364,-0.2108 -0.37645,0.47429 -0.51154,0.61471 -1.17922,1.50466 -1.97925,2.69241 -0.79123,1.17471 -1.65413,2.5546 -2.56193,4.11133 -1.82344,3.12692 -3.73418,6.80602 -5.52372,10.69954 -1.79529,3.90605 -3.4162,7.91383 -4.69178,11.68749 -2.27681,6.7357 -3.69196,11.88879 -4.71652,17.45501 -1.04639,5.68485 -1.74158,12.11115 -2.37564,21.36678 -0.34344,5.0134 -0.68392,9.98367 -1.02071,14.89993 a 13.553733,13.553697 59.418401 0 1 -1.22997,4.78409 c -20.3757,43.86005 -40.52246,87.22731 -60.39301,129.99999 -16.72874,36.00974 -32.17521,69.34437 -43.63067,94.13708 -5.80068,12.55424 -10.58385,22.93081 -14.03265,30.44326 -1.73581,3.78107 -3.12887,6.82631 -4.14337,9.05797 -0.50932,1.1204 -0.91773,2.02363 -1.22374,2.70625 -0.15335,0.34207 -0.27634,0.6184 -0.37089,0.83284 -0.0933,0.21163 -0.15844,0.36347 -0.16272,0.37362 -0.28423,0.67479 -0.64001,1.65856 -1.03439,2.95873 -0.39219,1.29293 -0.78884,2.78688 -1.17086,4.43371 -0.7788,3.35727 -1.44728,7.13437 -1.9052,10.86381 -0.32975,2.68557 -0.63702,5.01665 -0.9531,7.04119 -0.0432,0.27672 -0.0869,0.54986 -0.13118,0.81937 -0.36077,2.19552 -0.79154,4.34969 -1.39656,6.37815 -0.62465,2.09425 -1.46942,4.17901 -2.72014,6.22419 -1.23839,2.02501 -2.6081,3.57293 -3.8378,4.80262 -2.98059,2.98058 -6.51917,4.79576 -9.70637,5.88514 -3.21431,1.09863 -6.58389,1.63897 -9.82144,1.74239 -3.21862,0.10282 -6.59058,-0.21706 -9.86539,-1.0497 -3.21012,-0.81619 -6.70728,-2.22429 -9.87742,-4.56211 -1.61259,-1.18922 -2.9741,-2.53238 -4.09696,-3.80117 -1.13768,-1.28555 -2.18221,-2.66755 -3.13642,-4.06756 -1.88853,-2.77085 -3.66144,-5.96377 -5.29058,-9.34714 -3.22813,-6.70412 -6.24068,-14.88652 -8.58903,-23.52867 -0.84511,-3.11008 -1.58781,-5.94542 -2.17477,-8.80603 -0.60174,-2.93267 -1.02072,-5.79054 -1.30597,-9.10734 -0.27779,-3.23001 -0.42334,-6.83502 -0.50655,-11.24854 -0.0829,-4.3966 -0.10642,-9.77122 -0.11918,-16.60113 -0.0134,-7.19792 -0.0252,-12.54133 -0.0735,-16.48186 -0.0241,-1.96118 -0.0565,-3.51031 -0.0996,-4.73029 -0.0441,-1.24807 -0.0943,-1.98968 -0.13447,-2.39251 -0.0193,-0.19325 -0.0252,-0.19381 -0.002,-0.0619 0.0165,0.0947 0.10128,0.5752 0.32947,1.25629 0.11949,0.35666 0.31273,0.8725 0.61322,1.47778 0.296,0.59622 0.76554,1.42022 1.48254,2.30912 0.72489,0.89866 1.784,1.96336 3.26119,2.88428 1.52354,0.94982 3.29555,1.62127 5.22241,1.88234 1.89173,0.25631 3.58117,0.0708 4.93966,-0.26569 1.32386,-0.32795 2.36241,-0.80481 3.07806,-1.19496 1.34068,-0.7309 2.19241,-1.51571 2.4626,-1.76989 0.37892,-0.35647 0.4971,-0.50453 0.52177,-0.53271 0.0247,-0.0281 -0.055,0.0645 -0.19405,0.23263 0.15474,-0.1871 -0.16,0.20892 -0.56751,0.86646 -0.41901,0.67608 -0.93952,1.58122 -1.5502,2.71922 -1.2188,2.2712 -2.63949,5.17581 -4.13128,8.46693 -1.48035,3.2659 -2.98962,6.82164 -4.39415,10.37534 -1.40348,3.55105 -2.6765,7.03467 -3.70107,10.16996 -1.25459,3.83919 -2.47237,7.26682 -3.72606,10.27163 -1.24509,2.9842 -2.63949,5.83084 -4.32746,8.4016 -1.72747,2.63092 -3.815074,5.0552 -6.453833,7.09314 -2.653948,2.04968 -5.435154,3.37605 -8.168745,4.27822 -2.537162,0.83734 -5.31804,1.45546 -8.350659,1.57859 -3.070443,0.12466 -6.045853,-0.2726 -8.960778,-1.12587 -2.845576,-0.83297 -5.488406,-2.05765 -7.96939,-3.46373 -2.469497,-1.39957 -4.952612,-3.07931 -7.478427,-4.93871 -7.849538,-5.7785 -14.659321,-13.46582 -20.120047,-22.05487 -5.479716,-8.61892 -9.771826,-18.41091 -12.422378,-28.64893 -0.3505,-1.35385 -0.673305,-2.81437 -0.944475,-4.57014 -0.265242,-1.71741 -0.461262,-3.58836 -0.609402,-5.77363 -0.290783,-4.28945 -0.422554,-10.21339 -0.432464,-19.14807 -0.01992,-17.96021 0.458216,-49.36829 1.408461,-106.79604 0.636428,-38.46232 1.116636,-67.3658 1.531072,-89.30275 0.414758,-21.95399 0.764461,-36.97773 1.139579,-47.552 0.188005,-5.29972 0.384515,-9.54445 0.603288,-13.01845 0.218593,-3.47115 0.465444,-6.27307 0.765801,-8.65776 0.30581,-2.42797 0.668592,-4.43754 1.118889,-6.32344 0.441112,-1.84743 0.921471,-3.38622 1.344497,-4.73001 2.269153,-7.2082 5.331423,-13.9276 9.267782,-20.2631 3.958155,-6.37057 8.720642,-12.22513 14.267261,-17.7198 1.204325,-1.19305 2.509043,-2.4252 4.099787,-3.76015 1.584913,-1.33006 3.341555,-2.66831 5.450131,-4.13839 4.146304,-2.89076 9.850677,-6.42477 18.487672,-11.46361 17.397317,-10.14964 48.088538,-27.20507 104.349328,-58.366647 33.39531,-18.496905 64.28384,-35.447255 87.27909,-47.93236 11.59262,-6.294131 21.20309,-11.466412 28.16577,-15.1555404 3.4918,-1.8500995 6.35996,-3.3496497 8.49848,-4.4396801 1.06632,-0.5435146 2.007,-1.0137264 2.78017,-1.385366 0.38522,-0.1851649 0.78193,-0.3714549 1.16274,-0.5410711 0.19218,-0.085597 0.4133,-0.1816852 0.64984,-0.278923 0.21955,-0.090256 0.55113,-0.2223635 0.94361,-0.3577801 4.8525,-1.67425005 10.12969,-2.722 15.38985,-3.30147943 5.33119,-0.58729917 10.88181,-0.71970627 16.34284,-0.45025207 5.50566,0.27166054 11.03841,0.95742528 16.30173,2.05526913 5.28257,1.10185807 10.4797,2.65738717 15.19998,4.74422797 0.2828,0.1250239 0.53207,0.2444646 0.7178,0.3355633 0.19545,0.095867 0.38505,0.1921051 0.56007,0.2825204 0.3475,0.1795164 0.7218,0.3796873 1.10341,0.5873236 0.76561,0.4165824 1.70743,0.9432802 2.78835,1.5564756 2.17287,1.2326472 5.07206,2.9081712 8.566,4.9467422 7.01976,4.09574 16.57457,9.735411 27.76599,16.378701 22.54592,13.383375 51.82215,30.892169 80.87876,48.34866 29.36596,17.642342 58.52027,35.238686 80.80342,48.785976 11.22322,6.82329 20.72094,12.63004 27.67001,16.92585 3.48377,2.15362 6.35637,3.94562 8.49802,5.30474 1.0699,0.67897 1.99337,1.27271 2.73607,1.76174 0.37132,0.24449 0.7276,0.48263 1.05116,0.70498 0.29066,0.19976 0.69165,0.48001 1.09591,0.79035 1.20348,0.92389 2.36939,1.94136 3.46122,2.96506 1.10862,1.03944 2.21712,2.15707 3.3015,3.30903 2.18179,2.31777 4.39299,4.90959 6.47725,7.54583 2.11356,2.67331 4.16157,5.47431 5.98585,8.20745 1.82741,2.73782 3.54111,5.57253 4.88979,8.2711 1.74734,3.49626 3.28358,6.81951 4.5361,10.44037 1.29742,3.75067 2.17837,7.50638 2.77155,11.76642 0.58785,4.22173 0.88579,8.89854 1.0405,14.34758 0.15713,5.53431 0.17286,12.18188 0.13653,20.23269 -0.0875,19.39397 -0.39712,44.96936 -0.82494,72.14171 -0.43631,27.71179 -0.9967,57.17548 -1.5846,84.17382 -0.59982,27.54591 -1.22761,52.50053 -1.79353,70.94877 -0.28723,9.36329 -0.55966,17.09059 -0.80713,22.69543 -0.12433,2.81576 -0.24517,5.16155 -0.36245,6.9387 -0.0584,0.88491 -0.12122,1.71116 -0.19086,2.42292 -0.0347,0.35513 -0.0781,0.75393 -0.13329,1.15789 -0.028,0.20491 -0.0644,0.45159 -0.11148,0.72187 -0.0441,0.25358 -0.116,0.6354 -0.22582,1.08197 -2.42616,9.86622 -7.0124,19.74764 -12.27165,28.11955 -2.76781,4.4059 -5.81395,8.54456 -9.02318,12.23544 -3.29022,3.78402 -6.85723,7.21927 -10.61706,10.03012 -0.33404,0.24972 -0.66177,0.47941 -0.94661,0.67399 -0.29443,0.20114 -0.60092,0.40419 -0.90834,0.60411 -0.61382,0.39917 -1.3171,0.84149 -2.07994,1.31215 -1.53637,0.94793 -3.4706,2.10704 -5.70458,3.42458 -4.53072,2.67211 -10.48428,6.1077 -17.28019,9.98596 -13.97082,7.97279 -31.66943,17.91254 -48.91494,27.505 -17.98955,10.00631 -35.52315,19.65621 -49.07965,27.00245 -6.99239,3.78916 -12.95742,6.9823 -17.49032,9.35433 -2.29947,1.2033 -4.27433,2.21835 -5.8534,3.00384 -0.79516,0.39554 -1.53233,0.75401 -2.18538,1.05885 -0.32945,0.15379 -0.66305,0.30588 -0.98997,0.44895 -0.31597,0.13828 -0.69551,0.29881 -1.10143,0.45434 -2.14044,0.82007 -4.20648,1.51608 -6.23676,2.04126 -2.1601,0.55876 -4.34865,0.94227 -6.59662,1.05862 -2.43211,0.12588 -4.75427,-0.071 -7.00066,-0.56368 -2.38306,-0.52271 -4.46283,-1.33127 -6.24284,-2.18923 z m 11.7699,-24.41889 c 0.33659,0.16224 0.38426,0.15288 0.28074,0.13017 -0.096,-0.0211 -0.29609,-0.025 -0.20825,-0.0296 0.0824,-0.004 0.43453,-0.0307 1.20917,-0.23105 0.75429,-0.19512 1.8109,-0.52991 3.32697,-1.11077 -0.1212,0.0464 -0.15582,0.0637 -0.068,0.0253 0.0757,-0.0331 0.20311,-0.0904 0.39183,-0.17852 0.37878,-0.17681 0.89976,-0.42869 1.57822,-0.76618 1.34314,-0.66813 3.13555,-1.58804 5.35822,-2.75115 4.36436,-2.28384 10.19994,-5.40692 17.14352,-9.16964 13.44202,-7.28421 30.88458,-16.8837 48.81801,-26.85879 17.19281,-9.56315 34.79998,-19.45184 48.656,-27.35912 6.75019,-3.85216 12.57696,-7.21531 16.94514,-9.79156 2.16171,-1.27492 3.9235,-2.332 5.24151,-3.1452 0.6559,-0.40469 1.16376,-0.7255 1.53563,-0.96733 0.18397,-0.11963 0.31287,-0.2058 0.39564,-0.26234 0.0915,-0.0625 0.0822,-0.0585 0.006,-0.002 1.91497,-1.43163 4.09357,-3.4623 6.39207,-6.10576 2.2183,-2.55123 4.44065,-5.55021 6.52525,-8.86855 4.05517,-6.45519 7.30415,-13.67347 8.90238,-20.17283 -0.0871,0.35438 -0.13605,0.62315 -0.15691,0.74304 -0.0238,0.1367 -0.0367,0.22917 -0.0408,0.25949 -0.0104,0.0765 -5.3e-4,0.007 0.013,-0.13099 0.0299,-0.30592 0.0711,-0.81463 0.12087,-1.56823 0.0981,-1.48641 0.20892,-3.60725 0.33,-6.3494 0.23943,-5.42283 0.50757,-13.01035 0.79349,-22.33085 0.56247,-18.33588 1.18829,-43.20345 1.7872,-70.70775 0.58634,-26.92681 1.14617,-56.3588 1.58154,-84.01044 0.42716,-27.13086 0.73499,-52.59202 0.82185,-71.8373 0.0362,-8.02426 0.0176,-14.28755 -0.12588,-19.34097 -0.14166,-4.98947 -0.39952,-8.55705 -0.79238,-11.37846 -0.374,-2.6859 -0.87244,-4.70995 -1.54118,-6.64321 -0.68846,-1.99022 -1.64058,-4.13165 -3.16588,-7.18363 -0.68788,-1.37636 -1.76138,-3.2026 -3.1884,-5.34056 -1.38792,-2.07938 -3.00286,-4.29314 -4.70376,-6.4445 -1.68327,-2.12905 -3.38687,-4.11603 -4.95099,-5.77763 -0.77254,-0.82068 -1.47961,-1.52849 -2.10437,-2.11427 -0.63205,-0.59261 -1.10937,-0.99399 -1.42698,-1.23782 0.16361,0.1256 0.21753,0.15781 0.0578,0.048 -0.12656,-0.087 -0.32358,-0.21954 -0.60563,-0.40526 -0.5627,-0.37051 -1.34406,-0.87381 -2.35344,-1.51438 -2.0088,-1.27481 -4.77793,-3.00281 -8.22679,-5.13485 C 586.54986,162.5614 577.11789,156.79462 565.91548,149.984 543.6867,136.46976 514.57538,118.89929 485.23417,101.27181 456.2018,83.829885 426.96895,66.347112 404.47841,52.996606 393.30753,46.36551 383.82009,40.765831 376.88867,36.721632 c -3.4591,-2.018242 -6.24958,-3.630369 -8.28064,-4.782565 -1.01771,-0.577337 -1.80427,-1.016183 -2.36898,-1.323453 -0.283,-0.153986 -0.47397,-0.255121 -0.58891,-0.314499 -0.0519,-0.02682 -0.0771,-0.03909 -0.0559,-0.02868 0.006,0.0032 0.10255,0.05052 0.25865,0.11953 -2.61966,-1.158156 -5.92926,-2.19853 -9.77423,-3.00053 -3.78951,-0.790429 -7.91336,-1.310387 -12.10252,-1.517089 -4.1585,-0.205185 -8.26338,-0.09572 -12.03866,0.320175 -3.7799,0.416409 -7.00513,1.115498 -9.51681,1.982099 0.27794,-0.0959 0.46877,-0.173908 0.52168,-0.195658 0.0781,-0.03211 0.0919,-0.03899 0.0728,-0.03045 -0.055,0.02448 -0.19615,0.08913 -0.44849,0.210425 -0.50038,0.24052 -1.23088,0.603951 -2.2136,1.104854 -1.9496,0.993735 -4.67311,2.416691 -8.11718,4.241508 -6.84365,3.626055 -16.36301,8.748908 -27.9227,15.025156 -22.89261,12.429379 -53.73453,29.353886 -87.07919,47.822737 -56.39898,31.238117 -86.76616,48.116387 -103.823842,58.067877 -8.503797,4.96114 -13.429907,8.04497 -16.644412,10.28609 -1.560145,1.08771 -2.659503,1.93766 -3.527653,2.66621 -0.857603,0.7197 -1.597611,1.41119 -2.44789,2.25351 -4.203672,4.1643 -7.59356,8.38028 -10.31968,12.76792 -2.703091,4.35058 -4.82885,8.99046 -6.436354,14.09686 -0.403912,1.28308 -0.63531,2.05061 -0.834736,2.88583 -0.189867,0.79519 -0.389531,1.82215 -0.590212,3.41545 -0.20552,1.63172 -0.408892,3.82969 -0.6069,6.97396 -0.197338,3.13363 -0.383441,7.10879 -0.566738,12.27578 -0.36635,10.3271 -0.712672,25.15196 -1.127374,47.103 -0.413698,21.89789 -0.893323,50.76506 -1.529946,89.23921 -0.952193,57.54545 -1.424341,88.66883 -1.404767,106.3175 0.0098,8.84322 0.144175,14.00747 0.370408,17.34472 0.11016,1.62502 0.235028,2.70016 0.353843,3.46947 0.112723,0.72986 0.236833,1.29543 0.39691,1.91375 1.937305,7.48303 5.089931,14.66143 9.055712,20.89912 3.979265,6.2589 8.602501,11.29945 13.314858,14.76849 2.023112,1.48933 3.563745,2.49983 4.773697,3.18556 1.200143,0.68017 1.893259,0.9359 2.219198,1.03131 0.316868,0.0928 0.218801,0.0576 0.245584,0.0565 0.02681,-0.001 0.247931,-0.002 0.954849,-0.23524 0.419795,-0.13855 0.21603,-0.0839 0.09508,0.01 -0.121127,0.0935 -0.05633,0.12215 0.363587,-0.51738 0.448246,-0.68267 1.101479,-1.88041 1.96965,-3.96123 0.863564,-2.06977 1.829214,-4.74215 2.976795,-8.25388 1.229011,-3.76092 2.69857,-7.7686 4.257715,-11.7135 1.565759,-3.96163 3.248269,-7.92676 4.914555,-11.60285 1.663979,-3.67101 3.353201,-7.14541 4.935183,-10.09342 0.792855,-1.47748 1.59812,-2.89637 2.39456,-4.18146 0.76182,-1.22922 1.68147,-2.60726 2.71975,-3.86265 0.15468,-0.18704 0.41187,-0.49776 0.69016,-0.81553 0.26668,-0.30452 0.72087,-0.81006 1.29705,-1.35211 0.51139,-0.48108 1.58721,-1.44218 3.13621,-2.28665 0.81989,-0.44697 1.95872,-0.96495 3.37906,-1.3168 1.45499,-0.36044 3.23715,-0.55259 5.21796,-0.28421 2.01597,0.27314 3.87345,0.97543 5.47898,1.97636 1.55921,0.97206 2.69684,2.10817 3.49692,3.10006 0.79224,0.98216 1.33368,1.92125 1.69839,2.65589 0.36924,0.74375 0.62805,1.42142 0.81008,1.96475 0.35336,1.05469 0.55114,2.00838 0.66989,2.68772 0.12535,0.71716 0.21082,1.41357 0.27335,2.04099 0.12367,1.24089 0.19871,2.63937 0.25117,4.12267 0.0536,1.51676 0.0893,3.29856 0.11453,5.35592 0.0505,4.11452 0.0622,9.61979 0.0755,16.76363 0.0128,6.84834 0.0365,12.00566 0.11442,16.14093 0.0783,4.1535 0.20863,7.07597 0.41166,9.43674 0.19782,2.3002 0.46892,4.11236 0.85244,5.98147 0.40288,1.96347 0.95098,4.09765 1.77943,7.14642 1.97545,7.26981 4.44162,13.86726 6.8537,18.87661 1.22011,2.53391 2.33927,4.48011 3.26652,5.84058 0.46106,0.67646 0.81238,1.11616 1.03663,1.36955 0.24401,0.27572 0.2149,0.19193 -0.114,-0.0506 -0.27137,-0.20012 -0.18759,-0.0596 0.46839,0.1072 0.62306,0.15841 1.44162,0.2557 2.32021,0.22764 0.89558,-0.0286 1.56353,-0.17755 1.91965,-0.29927 0.30732,-0.10505 0.0535,-0.15018 -0.69416,0.59746 0.26746,-0.26745 0.10218,-0.14084 -0.12019,0.22277 -0.22545,0.36865 -0.23979,0.53637 -0.13062,0.17035 0.13602,-0.45603 0.34756,-1.34078 0.6244,-3.02554 0.0318,-0.19333 0.0641,-0.39499 0.0969,-0.60548 0.24743,-1.58484 0.51238,-3.57075 0.8307,-6.1633 0.5698,-4.64061 1.40106,-9.36091 2.40433,-13.6858 0.49498,-2.1338 1.04279,-4.21836 1.6368,-6.17665 0.58254,-1.92045 1.24488,-3.83687 1.99305,-5.61306 0.10187,-0.24182 0.22114,-0.51535 0.34068,-0.78648 0.12465,-0.28274 0.27199,-0.6135 0.43892,-0.98586 0.33346,-0.74387 0.76355,-1.69485 1.28216,-2.83566 1.03486,-2.27646 2.4438,-5.35629 4.18511,-9.14935 3.46359,-7.54466 8.25589,-17.94098 14.06049,-30.50372 11.47519,-24.83541 26.92059,-58.16764 43.65423,-94.18793 19.52647,-42.03202 39.31966,-84.63819 59.33471,-127.72193 0.28069,-4.0974 0.56384,-8.23078 0.84903,-12.39389 0.6619,-9.66204 1.44151,-17.2575 2.76011,-24.42125 1.3257,-7.20229 3.13756,-13.65921 5.69606,-21.22826 1.6238,-4.80382 3.61326,-9.69747 5.74142,-14.32775 2.12234,-4.6176 4.43286,-9.0824 6.73734,-13.03422 1.15194,-1.9754 2.3252,-3.86181 3.49577,-5.59969 1.15939,-1.72129 2.37699,-3.38756 3.62557,-4.88799 1.18797,-1.42759 2.69491,-3.05985 4.47216,-4.45536 0.90113,-0.70757 2.12677,-1.55727 3.64502,-2.26831 1.47925,-0.69277 3.76989,-1.50463 6.61985,-1.50465 2.68625,0 4.98234,0.78297 6.73225,1.77196 1.66878,0.94313 2.8246,2.05664 3.54945,2.87675 0.73868,0.83577 1.25311,1.62068 1.59044,2.19451 0.34671,0.58979 0.60262,1.12176 0.78569,1.53852 0.35673,0.81211 0.58644,1.53045 0.7285,2.02135 0.15048,0.52 0.26407,1.0005 0.3501,1.40422 0.16986,0.79715 0.2939,1.58727 0.38813,2.29165 0.0969,0.72453 0.17848,1.48162 0.24776,2.24615 0.13809,1.52382 0.24173,3.23755 0.31151,5.04625 0.0701,1.81616 0.10809,3.78375 0.10836,5.82722 4.3e-4,2.78738 0.0113,5.02954 0.0729,6.94364 0.0619,1.92168 0.16799,3.23113 0.30294,4.16169 0.12743,0.87867 0.26211,1.18967 0.21173,1.06723 -0.0781,-0.18978 -0.28791,-0.577 -0.64207,-0.9515 -0.31814,-0.33642 -0.47283,-0.36459 -0.11831,-0.17341 0.39957,0.21548 1.19173,0.57447 2.64835,1.05364 3.06673,1.00882 7.41719,2.03395 14.27968,3.57936 9.93683,2.23774 19.76443,5.88415 28.5841,10.4422 8.7782,4.53662 16.95579,10.18269 23.31928,16.64085 1.23629,1.25468 2.5814,2.48903 4.23103,3.83365 1.6687,1.36016 3.69253,2.86866 6.30218,4.65867 5.29295,3.63056 12.67014,8.19953 23.87032,14.84093 5.94277,3.52389 10.78382,6.42792 14.7013,8.84025 3.90046,2.40184 7.0234,4.4006 9.46462,6.09394 1.23051,0.85353 2.37147,1.68707 3.39982,2.50575 1.0113,0.8051 2.0641,1.71447 3.04262,2.72943 0.95154,0.98697 2.13362,2.38093 3.10707,4.1935 0.50481,0.93996 0.9819,2.04444 1.33107,3.30661 0.35391,1.27927 0.55596,2.64806 0.55596,4.07777 0,1.46743 -0.18803,2.77225 -0.40644,3.82229 -0.22229,1.06866 -0.51422,2.05421 -0.8151,2.92327 -0.59493,1.71841 -1.35626,3.3573 -2.12659,4.82221 -1.54564,2.9393 -3.54337,5.96266 -5.63748,8.74838 -2.12175,2.82251 -4.52847,5.64814 -7.00549,8.15603 -1.24743,1.26297 -2.56279,2.49619 -3.9168,3.63309 -1.33963,1.12481 -2.83534,2.25516 -4.44186,3.24184 -2.20504,1.35428 -4.39198,2.69743 -6.55604,4.02654 a 13.553714,13.553718 28.614166 0 1 -6.80602,2.00129 c -10.60391,0.22482 -21.09334,0.44721 -31.44395,0.66666 -6.13089,0.12999 -11.12214,0.26188 -15.20863,0.40894 -4.12946,0.1486 -7.2363,0.30935 -9.5889,0.48879 -2.43139,0.18545 -3.74434,0.36905 -4.387,0.49488 -0.30188,0.0591 -0.24478,0.0657 0.0367,-0.031 0.27096,-0.0931 1.02106,-0.37307 1.95579,-0.99288 0.58275,-0.38642 0.99057,-0.73147 1.19908,-0.91586 0.22592,-0.19979 0.37548,-0.35149 0.44029,-0.41873 0.12032,-0.12482 0.11562,-0.13248 -0.0316,0.0497 -0.29359,0.3633 -0.78021,1.0159 -1.45336,1.99589 -1.33683,1.94622 -3.01412,4.60465 -4.75337,7.53857 -1.74639,2.94598 -3.47022,6.02573 -4.90295,8.77095 -0.7209,1.3813 -1.3463,2.63614 -1.85517,3.7197 -0.52435,1.11651 -0.86256,1.91906 -1.04987,2.42005 -0.0848,0.22685 0.11936,-0.32201 0.14922,-1.06023 0.0302,-0.74659 -0.15259,-1.45264 -0.13055,-1.3853 0.0223,0.0682 0.31218,0.81641 1.01545,2.09684 0.73815,1.34395 1.79436,3.08554 3.30426,5.45002 12.23005,19.15211 20.0966,39.20786 23.61284,58.75239 0.64054,3.56037 1.10443,7.47162 1.42266,11.39105 0.32595,4.01449 0.5103,8.17565 0.56148,12.21278 0.0522,4.11676 -0.033,8.17596 -0.26013,11.92463 -0.22946,3.78749 -0.61536,7.46196 -1.21428,10.68271 -0.5092,2.73826 -0.96868,4.92073 -1.28702,6.60052 -0.33081,1.74555 -0.48912,2.82482 -0.55557,3.71273 -0.0605,0.80787 -0.0496,1.54182 0.0623,2.42847 0.12053,0.95524 0.38141,2.2644 0.9434,4.19082 0.57421,1.96831 1.41917,4.43499 2.64674,7.66319 1.23963,3.25991 2.81805,7.16264 4.80293,11.92253 4.00932,9.61458 9.73909,22.86761 17.24191,40.40483 7.84398,18.33469 14.95371,34.74913 20.20427,46.72248 2.77837,6.33578 5.03427,11.42386 6.67398,15.05867 0.84821,1.88025 1.51363,3.33189 1.99635,4.35895 0.24701,0.52554 0.42475,0.89419 0.54218,1.13079 0.0553,0.11137 0.0905,0.17887 0.0842,0.16697 -0.006,-0.012 -0.0355,-0.0809 -0.23714,-0.41349 -0.0212,-0.0349 0.0755,0.11572 0.21143,0.28605 0.15229,0.19079 0.32294,0.38111 0.48229,0.54206 0.16042,0.16203 0.28389,0.26117 0.23683,0.22421 -0.0507,-0.0398 -0.26404,-0.24851 -1.11439,-0.65838 z"
       id="path1798"
       sodipodi:nodetypes="ssssssssscssssscssscsssssssssssssssssssssssssssscssssssssssssssssssscssssscsssssscsssscsssssssss"
       inkscape:linked-fill="path1830"
       inkscape:path-effect="#path-effect1832"
       inkscape:original-d="m 442.97628,625.02876 c -1.66305,-0.80159 -4.14753,-3.31099 -5.52108,-5.57643 -1.37355,-2.26545 -14.93439,-33.18952 -30.13517,-68.72014 -30.56759,-71.44926 -28.5041,-64.3759 -24.71871,-84.73219 1.87245,-10.06928 1.62773,-29.37325 -0.524,-41.33333 -3.27973,-18.22992 -10.68669,-36.61632 -21.69657,-53.85767 -6.29134,-9.85216 -7.24582,-12.76845 -5.61058,-17.14233 2.91036,-7.78455 14.80395,-27.84776 17.61219,-29.7099 2.30435,-1.528 9.84112,-2.10285 34.39495,-2.62344 l 31.44396,-0.66666 6.55604,-4.02654 c 7.14348,-4.38733 17.88936,-18.68222 17.88936,-23.79764 0,-2.38206 -5.30015,-6.05848 -28.96166,-20.08909 -22.49285,-13.33764 -30.78948,-19.02848 -37.14504,-25.4786 -10.26608,-10.41881 -27.692,-19.42463 -45.22664,-23.37337 -26.70766,-6.01448 -27.32789,-6.67035 -27.33126,-28.90143 -10e-4,-7.51667 -0.55839,-13.66667 -1.23834,-13.66667 -4.21102,0 -15.69025,19.68507 -21.49724,36.8644 -4.81902,14.25656 -6.47306,23.24271 -7.77417,42.23567 l -1.02071,14.89993 -60.39301,130 c -33.21616,71.5 -61.90943,133.6 -63.76281,138 -2.05564,4.88018 -4.03374,13.4074 -5.07232,21.8659 -1.46258,11.9116 -2.19124,14.35461 -5.16998,17.33333 -4.59093,4.59093 -15.86605,4.95111 -21.64238,0.69135 -5.1439,-3.79338 -11.78091,-17.57699 -16.07791,-33.39032 -3.35819,-12.35842 -3.58122,-14.95179 -3.63221,-42.23426 -0.0537,-28.76093 -0.0811,-29.03501 -2.59116,-26 -3.85594,4.66227 -12.28092,23.24914 -16.782934,37.02583 -4.80962,14.71801 -7.843456,19.33852 -14.040615,21.38377 -6.477006,2.1376 -11.380033,0.70236 -20.476304,-5.99393 C 50.268528,524.76779 39.963769,508.55967 35.373503,490.82932 33.331696,482.94265 33.321013,473.31181 35.226363,358.16265 37.769472,204.47061 37.827376,202.83835 41.10588,192.42383 44.97048,180.14753 51.464951,169.6948 61.251403,160 69.460019,151.86825 77.447796,147.20817 190.66667,84.498808 257.03333,47.739819 314.33333,16.629199 318,15.364096 c 14.67883,-5.064609 38.59432,-3.884571 53.33333,2.631575 8.10282,3.582272 233.75864,139.150689 241.46198,145.064369 6.06848,4.65863 16.14626,17.40535 20.24506,25.60663 6.46648,12.93878 7.20146,18.21712 7.055,50.66666 -0.34592,76.64358 -4.1906,253.20487 -5.64214,259.10776 -3.92944,15.97948 -15.34731,34.15492 -26.8658,42.76612 -8.2536,6.17038 -140.14343,79.53136 -149.2684,83.02746 -7.12723,2.73069 -10.91787,2.92688 -15.34275,0.79409 z m 82.03771,-66.39305 c 44.10821,-24.50496 66.76578,-37.8449 70.5259,-41.52302 3.1387,-3.07024 7.44874,-9.54258 9.94384,-14.93254 l 4.40396,-9.51348 2.42199,-134 c 1.33209,-73.7 2.22916,-137.31058 1.99348,-141.35683 C 613.79885,208.65148 607.8464,194.95503 601.394,187.60613 598.39161,184.1866 561.90905,161.57199 482.54945,113.93738 419.56772,76.133383 364.60649,43.632204 360.41337,41.712533 350.41287,37.134148 333.32347,36.754501 324,40.9036 315.13932,44.846748 86.710857,171.71308 81.829775,175.40193 c -5.264988,3.97899 -11.688652,13.61782 -15.033772,22.55846 -2.43509,6.50836 -2.719956,14.88802 -4.926412,144.91585 -1.910643,112.59535 -2.029146,139.12503 -0.643546,144.07389 2.245983,8.02187 9.178159,20.02476 11.183255,19.36355 0.874885,-0.28851 4.111421,-6.34652 7.192304,-13.46224 11.046599,-25.51363 24.541856,-45.19127 44.974736,-65.57833 13.9743,-13.94298 19.64709,-17.50875 25.51261,-16.03659 4.99145,1.25277 9.91105,6.68105 9.91105,10.93583 0,1.9948 -2.94665,12.67206 -6.54813,23.72728 -3.60147,11.0552 -7.50147,25.7561 -8.66667,32.66866 C 142.47535,492.27159 141.84032,528 143.9066,528 c 2.47085,0 12.81432,-21.38624 67.06613,-138.66667 L 266.1742,270 l 1.65759,-16.66667 c 3.70206,-37.2233 13.72114,-63.66757 33.59962,-88.68254 8.69352,-10.93987 26.44527,-25.15946 33.28436,-26.66158 2.2703,-0.49864 5.75364,-0.23268 7.74259,0.59118 6.85296,2.83858 7.48757,5.36798 8.20831,32.71638 l 0.66666,25.29679 8.66667,2.47353 c 23.33241,6.65927 42.29077,16.9318 54.66667,29.62095 3.94926,4.04924 17.55305,13.03939 39.80172,26.30323 38.67468,23.05642 39.23372,23.60933 36.38258,35.98336 -3.01722,13.09488 -11.55797,28.41721 -21.26776,38.15496 C 454.02937,344.72823 443.56805,348 409.24613,348 h -22.62261 l -2.07559,4.35255 c -2.037,4.27164 -1.97438,4.52569 3.36834,13.66666 10.61374,18.15932 17.45845,37.69147 20.78561,59.31412 2.49532,16.21672 2.46428,24.76483 -0.155,42.68188 l -2.11977,14.50026 22.84884,53.7382 c 12.56686,29.55601 23.76544,55.13709 24.8857,56.84684 1.17831,1.79832 2.84392,2.79892 3.95159,2.37386 1.05309,-0.4041 31.15844,-16.9815 66.90075,-36.83866 z M 373.18407,274.00048 c -1.91543,-1.04101 -4.25604,-3.76001 -5.20136,-6.04223 -4.80215,-11.59341 11.29582,-21.01248 19.98038,-11.69069 4.7487,5.09712 2.77108,15.39196 -3.50618,18.25208 -4.23156,1.92803 -7.00514,1.80029 -11.27284,-0.51916 z" />
  </g>
</svg>
